<svg width="16" height="16" fill="none" xmlns="http://www.w3.org/2000/svg"><g clip-path="url(#clip0_31_10269)" fill="#84889C"><path d="M15.375 11c.345 0 .625-.28.625-.625V3.75c0-1.378-1.121-2.5-2.5-2.5h-.813V.625a.625.625 0 10-1.25 0v.625H8.595V.625a.625.625 0 10-1.25 0v.625H4.53V.625a.625.625 0 10-1.25 0v.625H2.5A2.503 2.503 0 000 3.75v9.75C0 14.879 1.121 16 2.5 16h11c1.379 0 2.5-1.121 2.5-2.5a.625.625 0 10-1.25 0c0 .69-.56 1.25-1.25 1.25h-11c-.69 0-1.25-.56-1.25-1.25V3.75c0-.69.56-1.25 1.25-1.25h.781v.625a.625.625 0 101.25 0V2.5h2.813v.625a.625.625 0 101.25 0V2.5h2.844v.625a.625.625 0 101.25 0V2.5h.812c.69 0 1.25.56 1.25 1.25v6.625c0 .345.28.625.625.625z"/><path d="M3.906 7.188a.625.625 0 100-1.25.625.625 0 000 1.25zm5.438 0a.625.625 0 100-1.25.625.625 0 000 1.25zm2.719 0a.625.625 0 100-1.25.625.625 0 000 1.25zM3.906 9.906a.625.625 0 100-1.25.625.625 0 000 1.25zm0 2.719a.625.625 0 100-1.25.625.625 0 000 1.25zm2.719-5.437a.625.625 0 100-1.25.625.625 0 000 1.25zm0 2.718a.625.625 0 100-1.25.625.625 0 000 1.25zm0 2.719a.625.625 0 100-1.25.625.625 0 000 1.25zm2.719-2.719a.625.625 0 100-1.25.625.625 0 000 1.25zm2.719 0a.625.625 0 100-1.25.625.625 0 000 1.25zm-2.719 2.719a.625.625 0 100-1.25.625.625 0 000 1.25z"/></g><defs><clipPath id="clip0_31_10269"><path fill="#fff" d="M0 0h16v16H0z"/></clipPath></defs></svg>