<svg width="42" height="42" fill="none" xmlns="http://www.w3.org/2000/svg"><path d="M27.51 30.393a2.04 2.04 0 00-2.037 2.038 2.04 2.04 0 002.037 2.037 2.04 2.04 0 002.038-2.038 2.04 2.04 0 00-2.038-2.037zm0 2.844a.808.808 0 11.002-1.615.808.808 0 01-.002 1.615z" fill="#013B43"/><path d="M38.113 38.402h-.392c.084-.355.028-.095.044-6.364a.615.615 0 10-1.23 0v5.995c0 .2-.17.369-.37.369H18.854c-.2 0-.37-.17-.37-.37V26.83c0-.2.17-.37.37-.37h17.311c.2 0 .37.17.37.37v2.337a.615.615 0 101.23 0v-2.338c0-.882-.718-1.6-1.6-1.6H23.117l-1.372-.466a.257.257 0 01-.173-.243v-1.508a8.107 8.107 0 003.93-6.106c1.884.087 3.174-1.711 2.393-3.27V8.618c0-3.628-1.973-4.89-2.576-5.19-3.476-4.15-10.641-4.754-15.044-.583a.616.616 0 00.421 1.063c.454 0 .384-.317 1.785-1.228.104-.067.305-.186.297-.18C16.406.32 21.758.988 24.456 4.315a.59.59 0 00.256.186c.08.032 1.952.82 1.952 4.116v3.884a2.647 2.647 0 00-1.114-.208v-2.012a.984.984 0 00-.895-.982c-1.034-.1-1.614-.774-1.918-1.321a1.235 1.235 0 00-1.884-.34c-2.744 2.345-5.903 2.464-8.07 2.151a3.027 3.027 0 00-3.425 2.505 2.661 2.661 0 00-1.154.207c.039-1.917-.287-3.99 1.231-6.638a.615.615 0 00-1.067-.612c-.926 1.614-1.373 3.48-1.385 4.805-.016.397-.006.251-.01 3.577-.782 1.562.514 3.357 2.393 3.27a8.12 8.12 0 004.16 6.24v1.375c0 .11-.069.207-.172.242-2.44.853.435-.184-5.96 2.084-.558.165-.434.122-.654.212-1.372.576-2.22 1.678-2.494 3.033-1.919 9.64-1.846 9.094-1.833 9.618.06 1.52 1.032 2.292 2.53 2.292h14.623a.615.615 0 100-1.23h-2.017c-.86-.001-1.145-1.138-.642-1.138h21.206c.503 0 .215 1.137-.642 1.137H22.437a.615.615 0 100 1.23H37.47c1.17 0 2.12-.95 2.12-2.12a1.48 1.48 0 00-1.477-1.477zM25.55 13.525c.71-.037 1.345.441 1.345 1.075 0 .64-.642 1.112-1.345 1.075v-2.15zm-16.231 2.15c-.71.037-1.345-.44-1.345-1.075 0-.64.642-1.112 1.345-1.075v2.15zm1.24.706c-.015-.285-.008-.182-.01-3.353.019-.104-.132-.95.618-1.599.396-.342.92-.496 1.44-.42 2.418.349 5.951.21 9.045-2.435l.01.002c.594 1.07 1.532 1.746 2.657 1.921 0 5.562.072 6.105-.204 7.206a7.019 7.019 0 01-.821 1.944c-3.611 5.707-12.398 3.463-12.735-3.266zM8.04 40.77H4.942c-1.053 0-1.242-.498-1.289-.932-.049-.453.052-.656.475-2.855h3.91v3.787zm8.868-2.367c-1 0-1.785.968-1.358 2.18.017.05.047.127.075.187H9.27v-5.8a.615.615 0 10-1.231 0v.783H4.373c1.161-5.826 1.095-5.582 1.221-5.918.253-.665.63-1.054 1.172-1.412.482-.277.536-.262.988-.4.033-.01-.184.066 3.547-1.255l2.23-.765a2.51 2.51 0 001.713 2.349 6.996 6.996 0 002.01.355c.04 9.363-.056 9.278.043 9.696h-.39zm.347-11.574v.647a5.759 5.759 0 01-1.62-.291 1.282 1.282 0 01-.875-1.218c-.001-1.493.003-.581-.002-2.275 2.6.905 4.646.187 4.785.177l-.001-.005.008-.003.002.005c.214-.07.286-.064.79-.258v1.621h-1.487c-.882 0-1.6.718-1.6 1.6z" fill="#013B43"/></svg>