<svg width="18" height="18" fill="none" xmlns="http://www.w3.org/2000/svg"><g clip-path="url(#clip0_31_10337)" fill="#9498AB"><path d="M12.205 10.59l-2.51-1.883V4.873a.697.697 0 10-1.394 0v4.183c0 .22.103.427.279.558l2.788 2.091a.693.693 0 00.976-.14.696.696 0 00-.14-.975z"/><path d="M9 0C4.037 0 0 4.037 0 9s4.037 9 9 9 9-4.037 9-9-4.037-9-9-9zm0 16.606c-4.193 0-7.606-3.413-7.606-7.606S4.807 1.394 9 1.394c4.194 0 7.606 3.413 7.606 7.606S13.193 16.606 9 16.606z"/></g><defs><clipPath id="clip0_31_10337"><path fill="#fff" d="M0 0h18v18H0z"/></clipPath></defs></svg>