<svg width="40" height="40" fill="none" xmlns="http://www.w3.org/2000/svg"><g clip-path="url(#clip0_103_247)" fill="#013B43"><path d="M34 28H22.4l10.851-10.849a1.333 1.333 0 000-1.882l-7.546-7.553a1.345 1.345 0 00-1.883.006L13.333 18.211v-7.058a2.701 2.701 0 00-.301-1.226l-4.6-8.867a2.005 2.005 0 00-3.54.008L.3 9.933a2.693 2.693 0 00-.3 1.22V34a6.007 6.007 0 006 6h28a6 6 0 000-12zM24.768 8.667l7.54 7.542L20.519 28H6c-.2 0-.4.01-.6.03l1.923-1.922.37.37a.667.667 0 10.942-.945l-.37-.369.943-.943.944.944a.667.667 0 10.943-.944l-.944-.943.943-.943 1.886 1.886a.667.667 0 00.943-.942l-1.886-1.886.943-.943.943.943a.667.667 0 00.944-.941l-.944-.943.944-.943 1.886 1.886a.667.667 0 00.942-.943l-1.885-1.886.943-.942.943.942a.666.666 0 10.943-.942l-.944-.943.944-.943 1.885 1.886a.667.667 0 10.943-.944l-1.887-1.885.943-.943.944.943a.667.667 0 00.942-.943l-.942-.942.942-.943 1.886 1.885a.667.667 0 00.942-.942l-1.885-1.886 1.416-1.414zM3.951 12.44l-2.438-1.953 2.411-4.651a4.941 4.941 0 005.485 0l2.412 4.652-2.438 1.952-1.774-1.773a1.333 1.333 0 00-1.885 0L3.951 12.44zM10 21.544v-7.923a1.4 1.4 0 00.216-.14L12 12.052v7.492l-2 2zM6.075 1.688a.671.671 0 011.18-.007l1.529 2.948c-1.255.94-2.98.94-4.235 0l1.526-2.941zM1.333 12.052l1.784 1.429c.068.046.14.086.216.119v7.733a.667.667 0 101.334 0v-7.77c.081-.052.157-.112.226-.18l1.774-1.774 1.773 1.774c.069.067.145.127.227.178v9.316l-4 4V24a.667.667 0 10-1.334 0v4.21l-1.2 1.2-.017.019a.103.103 0 00-.009.014c-.281.24-.54.506-.774.794V12.052zM34 38.667H6a4.667 4.667 0 010-9.334h28a4.667 4.667 0 010 9.334z"/><path d="M6 30.667a3.333 3.333 0 100 6.666 3.333 3.333 0 000-6.666zM6 36a2 2 0 110-4 2 2 0 010 4zm28-5.333a3.333 3.333 0 100 6.666 3.333 3.333 0 000-6.666zM34 36a2 2 0 110-4 2 2 0 010 4z"/></g><defs><clipPath id="clip0_103_247"><path fill="#fff" d="M0 0h40v40H0z"/></clipPath></defs></svg>