<svg width="44" height="44" fill="none" xmlns="http://www.w3.org/2000/svg"><path d="M14.98 18.945a.86.86 0 00-1.191-.238l-7.734 5.156a.86.86 0 000 1.43l7.734 5.156a.86.86 0 10.953-1.43l-6.661-4.44 6.661-4.442a.86.86 0 00.239-1.192zm14.04 11.266a.86.86 0 001.191.238l7.734-5.156a.86.86 0 000-1.43l-7.734-5.156a.86.86 0 00-.953 1.43l6.661 4.441-6.661 4.441a.86.86 0 00-.239 1.192zm-4.058-11.558a.86.86 0 00-1.153.385L18.653 29.35a.86.86 0 101.538.769l5.156-10.313a.86.86 0 00-.385-1.153zM22 40.906a.86.86 0 100-1.719.86.86 0 000 1.72z" fill="#013B43"/><path d="M2.578 40.906h15.555a.86.86 0 100-1.718H2.578a.86.86 0 01-.86-.86V9.968h40.563v28.36a.86.86 0 01-.86.86H25.868a.86.86 0 100 1.718h15.555A2.581 2.581 0 0044 38.328V5.672a2.581 2.581 0 00-2.578-2.578H2.578A2.581 2.581 0 000 5.672v32.656a2.581 2.581 0 002.578 2.578zM42.281 5.672V8.25H15.125V4.812h26.297a.86.86 0 01.86.86zm-39.703-.86h10.828V8.25H1.72V5.672a.86.86 0 01.86-.86z" fill="#013B43"/></svg>