<svg width="18" height="18" fill="none" xmlns="http://www.w3.org/2000/svg"><g clip-path="url(#clip0_31_6648)"><path d="M17.212 7.2a.75.75 0 00-1.06 0l-8.17 8.204a3.751 3.751 0 01-5.304-5.303l7.912-7.944a2.25 2.25 0 013.182 3.182l-7.911 7.944a.766.766 0 01-1.06 0 .75.75 0 010-1.061l7.043-7.076a.75.75 0 00-1.06-1.06L3.74 11.16a2.25 2.25 0 000 3.183 2.305 2.305 0 003.182 0l7.91-7.945A3.75 3.75 0 009.53 1.097L1.618 9.04a5.25 5.25 0 107.425 7.424l8.169-8.201a.75.75 0 000-1.064z" fill="#808A8B"/></g><defs><clipPath id="clip0_31_6648"><path fill="#fff" d="M0 0h18v18H0z"/></clipPath></defs></svg>