<svg width="32" height="43" fill="none" xmlns="http://www.w3.org/2000/svg"><path d="M30.706 6.32h-1.38V4.94c0-.713-.58-1.293-1.294-1.293h-8.226a1.295 1.295 0 00-1.132-.669H9.212A3.304 3.304 0 005.973.304a3.304 3.304 0 00-3.239 2.674h-1.44C.58 2.978 0 3.558 0 4.272v17.38c0 .487.27.911.668 1.132v16.248c0 .714.58 1.294 1.294 1.294h1.38v1.38c0 .713.58 1.294 1.294 1.294h26.07C31.42 43 32 42.42 32 41.706V7.614c0-.713-.58-1.293-1.294-1.293zM1.251 4.273c0-.024.02-.043.043-.043h1.38v6.06a3.303 3.303 0 003.3 3.299 3.303 3.303 0 003.298-3.3V7.614c0-1.082-.88-1.962-1.962-1.962-1.082 0-1.962.88-1.962 1.962v1.337a.625.625 0 001.25 0V7.614a.712.712 0 011.423 0v2.674a2.05 2.05 0 01-2.048 2.049 2.05 2.05 0 01-2.048-2.049V3.602a2.05 2.05 0 012.048-2.047 2.05 2.05 0 011.95 1.423h-1.95a.625.625 0 000 1.251h12.7c.025 0 .044.02.044.043v17.38c0 .024-.02.043-.043.043H1.294a.043.043 0 01-.043-.043V4.272zm29.498 37.434a.043.043 0 01-.043.043H4.636a.043.043 0 01-.043-.043v-1.38h17.538a1.95 1.95 0 001.388-.575l5.233-5.233c.37-.37.574-.863.574-1.387V10.957a.625.625 0 00-1.25 0v22.102h-4.723c-.713 0-1.294.58-1.294 1.294v4.722H1.962a.043.043 0 01-.043-.043V22.946h16.755c.713 0 1.294-.58 1.294-1.294V4.898h8.064c.024 0 .044.019.044.043v3.342a.625.625 0 101.25 0v-.712h1.38c.024 0 .043.02.043.043v34.092zm-7.439-3.515v-3.838c0-.024.02-.043.043-.043h3.838l-3.88 3.88z" fill="#013B43"/><path d="M11.99 10.245h3.341a.625.625 0 100-1.25H11.99a.625.625 0 000 1.25zm0 3.343h3.341a.626.626 0 000-1.251H11.99a.625.625 0 100 1.25zM4.637 16.93h10.695a.625.625 0 100-1.251H4.637a.625.625 0 100 1.25zm20.053-1.251h-1.337a.625.625 0 100 1.25h1.337a.625.625 0 100-1.25zm0-6.685h-1.337a.625.625 0 000 1.251h1.337a.625.625 0 100-1.25zm0 3.343h-1.337a.625.625 0 100 1.25h1.337a.625.625 0 000-1.25zm0 6.684h-1.337a.625.625 0 100 1.251h1.337a.625.625 0 100-1.25zM6.642 25.038H5.305a.625.625 0 100 1.25h1.337a.625.625 0 100-1.25zm0 6.684H5.305a.625.625 0 100 1.251h1.337a.625.625 0 100-1.25zm0-3.342H5.305a.625.625 0 100 1.25h1.337a.625.625 0 100-1.25zm18.048-3.342H9.984a.625.625 0 100 1.25H24.69a.625.625 0 100-1.25zm-5.348 6.684H9.984a.625.625 0 100 1.251h9.358a.625.625 0 100-1.25zm5.348-3.342H9.984a.625.625 0 100 1.25H24.69a.625.625 0 100-1.25z" fill="#013B43"/></svg>