<svg width="16" height="16" fill="none" xmlns="http://www.w3.org/2000/svg"><g clip-path="url(#clip0_17_4569)" fill="#808A8B"><path d="M12.667 5.616v-.95a4.666 4.666 0 10-9.334 0v.95a3.333 3.333 0 00-2 3.05v4A3.337 3.337 0 004.668 16h6.667a3.338 3.338 0 003.333-3.333v-4a3.333 3.333 0 00-2-3.051zm-8-.95a3.333 3.333 0 016.667 0v.667H4.667v-.666zm8.666 8a2 2 0 01-2 2H4.668a2 2 0 01-2-2v-4a2 2 0 012-2h6.667a2 2 0 012 2v4z"/><path d="M8 9.333a.667.667 0 00-.667.667v1.333a.667.667 0 101.334 0V10A.667.667 0 008 9.333z"/></g><defs><clipPath id="clip0_17_4569"><path fill="#fff" d="M0 0h16v16H0z"/></clipPath></defs></svg>