<svg width="17" height="17" fill="none" xmlns="http://www.w3.org/2000/svg"><g clip-path="url(#clip0_13_1161)" fill="#013B43"><path d="M8.129 10.625a.708.708 0 00-.708.708v2.125a2.125 2.125 0 01-2.126 2.125H3.542a2.125 2.125 0 01-2.125-2.125V3.542a2.125 2.125 0 012.125-2.125h1.753A2.125 2.125 0 017.42 3.542v2.125a.708.708 0 101.417 0V3.542A3.546 3.546 0 005.295 0H3.542A3.546 3.546 0 000 3.542v9.916A3.546 3.546 0 003.542 17h1.753a3.546 3.546 0 003.542-3.542v-2.125a.708.708 0 00-.708-.708z"/><path d="M16.198 6.998l-3.249-3.249a.708.708 0 10-1.002 1.002l3.02 3.02-10.717.02a.708.708 0 000 1.417l10.758-.022-3.062 3.063a.708.708 0 101.002 1.002l3.248-3.249a2.125 2.125 0 00.002-3.004z"/></g><defs><clipPath id="clip0_13_1161"><path fill="#fff" d="M0 0h17v17H0z"/></clipPath></defs></svg>