<svg width="41" height="41" fill="none" xmlns="http://www.w3.org/2000/svg"><path d="M40.873 5.953a.8.8 0 00-.69-.52l-4.366-.327L35.49.741a.8.8 0 00-1.364-.506l-3.49 3.489a3.215 3.215 0 00-.943 2.206l.047 2.674A18.137 18.137 0 0018.3 4.555C8.25 4.555.077 12.73.077 22.778.077 32.826 8.25 41 18.3 41c10.048 0 18.223-8.174 18.223-18.222a18.14 18.14 0 00-4.171-11.59l2.642.042h.043a3.215 3.215 0 002.162-.943l3.49-3.49a.8.8 0 00.184-.844zm-9.105-1.097l2.255-2.254.22 2.945-2.903 2.91-.045-2.531c.02-.404.187-.783.473-1.07zM18.3 39.398c-9.165 0-16.622-7.456-16.622-16.62 0-9.165 7.456-16.621 16.622-16.621a16.56 16.56 0 0111.09 4.25l-1.855 1.855A13.944 13.944 0 0018.3 8.776c-1.629 0-3.225.279-4.746.828a.8.8 0 00.544 1.506 12.328 12.328 0 014.202-.732c3.093 0 5.926 1.139 8.1 3.019l-1.857 1.858a9.736 9.736 0 00-6.243-2.258c-5.393 0-9.781 4.388-9.781 9.78 0 5.393 4.388 9.78 9.78 9.78a9.8 9.8 0 004.445-1.068.8.8 0 00-.73-1.426 8.073 8.073 0 01-3.714.893c-4.51 0-8.18-3.668-8.18-8.178 0-4.51 3.67-8.18 8.18-8.18a8.14 8.14 0 015.105 1.795l-1.868 1.868a5.53 5.53 0 00-3.237-1.043 5.566 5.566 0 00-5.56 5.56 5.566 5.566 0 005.56 5.559 5.566 5.566 0 005.56-5.56 5.531 5.531 0 00-1.17-3.405l1.862-1.861a8.142 8.142 0 011.927 5.267c0 .879-.14 1.745-.414 2.572a.801.801 0 001.52.505c.329-.99.496-2.026.496-3.078a9.739 9.739 0 00-2.393-6.402l1.855-1.855a12.35 12.35 0 013.157 8.258c0 6.837-5.563 12.4-12.4 12.4-6.838 0-12.4-5.563-12.4-12.4 0-2.642.822-5.165 2.38-7.297a.8.8 0 10-1.294-.945 13.884 13.884 0 00-2.688 8.242c0 7.72 6.281 14 14.002 14 7.72 0 14.002-6.28 14.002-14 0-3.61-1.374-6.906-3.626-9.391l1.853-1.854a16.557 16.557 0 014.392 11.245c0 9.164-7.456 16.62-16.621 16.62zm3.958-16.62a3.962 3.962 0 01-3.958 3.957 3.962 3.962 0 01-3.958-3.957A3.962 3.962 0 0118.3 18.82c.764 0 1.478.218 2.083.594l-2.554 2.554a.8.8 0 101.132 1.133l2.585-2.585c.448.642.712 1.421.712 2.262zM36.067 9.155a1.619 1.619 0 01-1.07.473l-2.522-.04 1.539-1.539a.849.849 0 00.048-.053l1.315-1.317 2.945.22-2.255 2.256z" fill="#013B43"/></svg>