<svg width="17" height="17" fill="none" xmlns="http://www.w3.org/2000/svg"><g clip-path="url(#clip0_103_12)" fill="#808A8B"><path d="M8.47 17.006l-.494-.424c-.68-.57-6.624-5.703-6.624-9.457a7.118 7.118 0 0114.236 0c0 3.754-5.943 8.887-6.621 9.46l-.497.42zm0-15.46a5.585 5.585 0 00-5.579 5.579c0 2.358 3.657 6.127 5.58 7.851 1.921-1.725 5.578-5.495 5.578-7.851a5.585 5.585 0 00-5.579-5.58z"/><path d="M8.47 9.946a2.822 2.822 0 110-5.643 2.822 2.822 0 010 5.643zm0-4.232a1.41 1.41 0 100 2.821 1.41 1.41 0 000-2.821z"/></g><defs><clipPath id="clip0_103_12"><path fill="#fff" d="M0 0h17v17H0z"/></clipPath></defs></svg>