<svg xmlns="http://www.w3.org/2000/svg" viewBox="0 0 32 32" width="512" height="512"><path d="M5.76 22.83l1.41-1.41A18.13 18.13 0 013.11 16C5.88 10.44 10.78 7 16 7a12.37 12.37 0 014.65.93l1.52-1.51A14.4 14.4 0 0016 5C9.86 5 4.15 9.05 1.09 15.58a1 1 0 000 .84 20.3 20.3 0 004.67 6.41zM25.15 8.26l5.56-5.55a1 1 0 10-1.42-1.42l-28 28a1 1 0 000 1.42 1 1 0 001.42 0l5.82-5.82A14.62 14.62 0 0016 27c6.14 0 11.85-4 14.91-10.58a1 1 0 000-.84 19.83 19.83 0 00-5.76-7.32zM21 16a5 5 0 01-5 5 4.88 4.88 0 01-2.74-.85l6.89-6.89A4.88 4.88 0 0121 16zm-5 9a12.51 12.51 0 01-6-1.58l1.82-1.82A6.89 6.89 0 0016 23a7 7 0 007-7 6.89 6.89 0 00-1.4-4.18l2.13-2.13A17.55 17.55 0 0128.89 16c-2.77 5.56-7.67 9-12.89 9z"/><path d="M16 11a4.79 4.79 0 011.37.22l1.56-1.57a7 7 0 00-9.28 9.28l1.57-1.56A4.79 4.79 0 0111 16a5 5 0 015-5z"/></svg>