<svg width="22" height="23" fill="none" xmlns="http://www.w3.org/2000/svg"><path d="M8.895 12.688H6.708c-.344 0-.466-.13-.466-.492v-2.79c0-.357.13-.493.47-.493h2.183V6.887c0-.914.156-1.789.6-2.59a3.69 3.69 0 011.965-1.706 4.666 4.666 0 011.684-.292c.72 0 1.442 0 2.163.002.31 0 .448.143.448.47.002.874.002 1.75 0 2.624 0 .33-.132.462-.449.466-.59.006-1.182.002-1.773.027-.596 0-.91.304-.91.95-.014.682-.006 1.366-.006 2.073h2.546c.36 0 .484.13.484.509v2.774c-.001.373-.117.493-.48.493H12.61v7.486c0 .399-.12.526-.497.526H9.358c-.333 0-.463-.136-.463-.483v-7.529z" fill="#3D6AD6"/></svg>