<svg width="23" height="23" fill="none" xmlns="http://www.w3.org/2000/svg"><path d="M20.7 5.795a7.87 7.87 0 01-2.173.596 3.75 3.75 0 001.66-2.085 7.538 7.538 0 01-2.392.913 3.771 3.771 0 00-6.525 2.58c0 .298.025.586.087.86a10.677 10.677 0 01-7.775-3.946c-1.333 2.402.156 4.37 1.16 5.041a3.725 3.725 0 01-1.705-.464 3.803 3.803 0 003.022 3.748c-.375.124-1.194.192-1.703.06a3.808 3.808 0 003.525 2.627c-1.284 1.004-3.175 1.822-5.58 1.557a10.62 10.62 0 005.787 1.693c6.941 0 10.736-5.75 10.736-10.734 0-.167-.006-.328-.014-.488a7.526 7.526 0 001.89-1.958z" fill="#1DA1F3"/></svg>