<svg width="18" height="18" fill="none" xmlns="http://www.w3.org/2000/svg"><g clip-path="url(#clip0_17_4557)"><path d="M3.99 10.878l-.627 2.339-2.29.048A8.96 8.96 0 010 9c0-1.492.363-2.9 1.006-4.139l2.04.374.893 2.026a5.35 5.35 0 00-.29 1.74c.001.66.12 1.293.34 1.877z" fill="#FBBB00"/><path d="M17.842 7.319a9.015 9.015 0 01-.04 3.56 8.998 8.998 0 01-3.168 5.14l-2.569-.132-.363-2.269a5.364 5.364 0 002.308-2.739H9.197V7.32h8.645z" fill="#518EF8"/><path d="M14.633 16.018A8.962 8.962 0 019 18a8.999 8.999 0 01-7.928-4.735l2.917-2.387a5.351 5.351 0 007.713 2.74l2.932 2.4z" fill="#28B446"/><path d="M14.744 2.072L11.83 4.459a5.353 5.353 0 00-7.89 2.802l-2.933-2.4A8.998 8.998 0 019 0c2.183 0 4.185.778 5.744 2.072z" fill="#F14336"/></g><defs><clipPath id="clip0_17_4557"><path fill="#fff" d="M0 0h18v18H0z"/></clipPath></defs></svg>