<svg width="19" height="19" fill="none" xmlns="http://www.w3.org/2000/svg"><path d="M13.831 8.94a.792.792 0 101.12 1.12l1.222-1.223a4.25 4.25 0 00-6.01-6.01L8.941 4.05a.792.792 0 101.12 1.12l1.222-1.223a2.666 2.666 0 113.77 3.771L13.831 8.94zM5.17 10.06a.792.792 0 10-1.12-1.12l-1.222 1.223a4.25 4.25 0 006.01 6.01l1.222-1.223a.792.792 0 00-1.12-1.12l-1.222 1.223a2.666 2.666 0 01-3.77-3.771l1.221-1.222z" fill="#013B43"/><path d="M6.495 12.508a.792.792 0 001.12 0l4.893-4.893a.792.792 0 10-1.12-1.12l-4.893 4.89a.79.79 0 000 1.123z" fill="#013B43"/></svg>