<svg width="16" height="15" fill="none" xmlns="http://www.w3.org/2000/svg"><g clip-path="url(#clip0_103_1260)" fill="#fff"><path d="M10.85.297H5.448A4.502 4.502 0 00.946 4.8v5.402a4.502 4.502 0 004.502 4.502h5.402a4.502 4.502 0 004.5-4.504V4.8a4.502 4.502 0 00-4.5-4.503zM14 10.201a3.155 3.155 0 01-3.15 3.151H5.448a3.155 3.155 0 01-3.152-3.15V4.798a3.155 3.155 0 013.152-3.151h5.402A3.155 3.155 0 0114 4.799v5.402z"/><path d="M8.149 3.899a3.602 3.602 0 100 7.203 3.602 3.602 0 000-7.203zm0 5.852a2.254 2.254 0 01-2.251-2.25 2.254 2.254 0 012.25-2.252A2.255 2.255 0 0110.4 7.5c0 1.24-1.01 2.251-2.251 2.251zm3.871-5.642a.48.48 0 100-.96.48.48 0 000 .96z"/></g><defs><clipPath id="clip0_103_1260"><path fill="#fff" transform="translate(.946 .297)" d="M0 0h14.405v14.405H0z"/></clipPath></defs></svg>