<svg width="17" height="14" fill="none" xmlns="http://www.w3.org/2000/svg"><path d="M16.81 1.98a7.19 7.19 0 01-1.963.53 3.346 3.346 0 001.5-1.855 6.876 6.876 0 01-2.161.812 3.44 3.44 0 00-2.49-1.062c-1.886 0-3.405 1.508-3.405 3.356 0 .266.023.522.08.765a9.696 9.696 0 01-7.025-3.509A3.338 3.338 0 00.88 2.713c0 1.162.608 2.192 1.514 2.788a3.406 3.406 0 01-1.54-.413v.037c0 1.63 1.181 2.985 2.73 3.296-.277.075-.58.111-.893.111-.218 0-.439-.012-.645-.057a3.434 3.434 0 003.184 2.337 6.915 6.915 0 01-4.225 1.43c-.28 0-.548-.011-.816-.045a9.703 9.703 0 005.228 1.506c6.27 0 9.698-5.115 9.698-9.548 0-.148-.005-.291-.012-.434a6.74 6.74 0 001.708-1.742z" fill="#fff"/></svg>