<svg width="18" height="18" fill="none" xmlns="http://www.w3.org/2000/svg"><g clip-path="url(#clip0_103_1266)"><path d="M17.139 4.134c-.481-.855-1.003-1.013-2.066-1.073-1.062-.072-3.73-.102-6.044-.102-2.317 0-4.987.03-6.048.101-1.06.061-1.583.217-2.068 1.074-.496.854-.75 2.326-.75 4.917v.009c0 2.58.254 4.062.75 4.907.485.856 1.007 1.011 2.067 1.083 1.062.062 3.732.099 6.05.099 2.312 0 4.982-.037 6.044-.098 1.063-.072 1.585-.227 2.066-1.082.5-.846.752-2.329.752-4.908v-.009c0-2.592-.253-4.064-.753-4.918z" fill="#fff"/><path d="M6.811 12.379V5.73l5.54 3.324-5.54 3.325z" fill="#1B2F1B"/></g><defs><clipPath id="clip0_103_1266"><path fill="#fff" transform="translate(.162 .189)" d="M0 0h17.73v17.73H0z"/></clipPath></defs></svg>