<svg width="14" height="13" fill="none" xmlns="http://www.w3.org/2000/svg"><path d="M13.662 6.07a1.42 1.42 0 00-.678-1.22L6.424.574A2.393 2.393 0 002.585 2.48v1.163a.479.479 0 01-.14.34L1.372 5.055a1.42 1.42 0 00-.334.536h-.005v.018c-.1.298-.1.622.002.92v.018h.005c.07.201.184.385.334.536l1.073 1.073c.09.09.14.212.14.339v1.163a2.377 2.377 0 001.327 2.145 2.363 2.363 0 002.482-.217l6.574-4.288a1.425 1.425 0 00.692-1.228zM3.543 3.644V2.48a1.408 1.408 0 01.796-1.286 1.426 1.426 0 011.533.16l6.495 4.237H2.188l.933-.933a1.426 1.426 0 00.422-1.014zm2.304 7.16A1.438 1.438 0 013.543 9.66V8.495a1.426 1.426 0 00-.42-1.015l-.933-.933 10.177.002-6.52 4.255z" fill="#fff"/></svg>