<svg width="17" height="17" fill="none" xmlns="http://www.w3.org/2000/svg"><g clip-path="url(#clip0_13_1154)" fill="#013B43"><path d="M8.5 5.667a2.833 2.833 0 100 5.666 2.833 2.833 0 000-5.666zm0 4.25a1.417 1.417 0 110-2.834 1.417 1.417 0 010 2.834z"/><path d="M15.083 9.846l-.314-.181a6.47 6.47 0 000-2.33l.314-.182a2.128 2.128 0 00-.511-3.895 2.126 2.126 0 00-1.614.211l-.315.182a6.358 6.358 0 00-2.018-1.163v-.363a2.125 2.125 0 10-4.25 0v.363a6.359 6.359 0 00-2.017 1.166l-.317-.183a2.126 2.126 0 00-2.125 3.683l.314.181a6.446 6.446 0 000 2.33l-.314.182a2.126 2.126 0 102.125 3.684l.315-.183a6.34 6.34 0 002.019 1.164v.363a2.125 2.125 0 104.25 0v-.363a6.356 6.356 0 002.017-1.166l.317.182a2.126 2.126 0 102.125-3.683zM13.278 7.17c.24.87.24 1.787 0 2.656a.708.708 0 00.329.803l.768.443a.709.709 0 01-.709 1.228l-.769-.445a.709.709 0 00-.86.117A4.947 4.947 0 019.74 13.3a.708.708 0 00-.532.687v.887a.708.708 0 01-1.417 0v-.887a.708.708 0 00-.532-.686 4.947 4.947 0 01-2.296-1.331.709.709 0 00-.861-.117l-.768.444a.708.708 0 11-.708-1.227l.768-.443a.708.708 0 00.328-.803 4.992 4.992 0 010-2.656.708.708 0 00-.33-.8l-.767-.443a.709.709 0 01.708-1.228l.77.445a.708.708 0 00.86-.114A4.947 4.947 0 017.26 3.701a.708.708 0 00.532-.69v-.886a.708.708 0 111.416 0v.887a.708.708 0 00.532.686 4.947 4.947 0 012.297 1.331.708.708 0 00.861.117l.768-.444a.708.708 0 11.708 1.227l-.768.443a.709.709 0 00-.328.8z"/></g><defs><clipPath id="clip0_13_1154"><path fill="#fff" d="M0 0h17v17H0z"/></clipPath></defs></svg>