<svg width="20" height="18" fill="none" xmlns="http://www.w3.org/2000/svg"><path d="M19.16 9.021a2.1 2.1 0 00-1.002-1.803L8.457.892a3.538 3.538 0 00-5.677 2.82v1.72a.708.708 0 01-.208.501L.986 7.52a2.1 2.1 0 00-.494.794H.485v.025a2.13 2.13 0 00.003 1.362v.026h.007a2.1 2.1 0 00.494.793l1.586 1.587a.709.709 0 01.208.5v1.72A3.516 3.516 0 004.745 17.5a3.495 3.495 0 003.671-.322l9.722-6.341a2.108 2.108 0 001.022-1.816zM4.197 5.434l-.001-1.721A2.082 2.082 0 015.374 1.81a2.11 2.11 0 012.267.238l9.604 6.264H2.193l1.38-1.38a2.11 2.11 0 00.624-1.5zm3.406 10.589a2.125 2.125 0 01-3.406-1.692v-1.723a2.11 2.11 0 00-.622-1.501l-1.38-1.38 15.05.003-9.642 6.293z" fill="#4E4CED"/></svg>