<svg width="42" height="42" fill="none" xmlns="http://www.w3.org/2000/svg"><g clip-path="url(#clip0_22_4328)" fill="#4E4CED"><path d="M38.555 14.766H27.017c.037-.405.057-.815.057-1.23C27.074 6.074 21 0 13.537 0 11.159 0 8.82.625 6.773 1.809a.82.82 0 10.821 1.42 11.889 11.889 0 015.943-1.588c6.56 0 11.896 5.336 11.896 11.896 0 6.56-5.337 11.896-11.896 11.896-2.746 0-5.326-.91-7.46-2.63a.821.821 0 00-.756-.145l-2.177.57.853-1.875a.82.82 0 00-.084-.823 11.805 11.805 0 01-2.272-6.993c0-2.096.552-4.156 1.596-5.957a.82.82 0 00-1.42-.823A13.534 13.534 0 000 13.537c0 2.72.797 5.325 2.31 7.563L.935 24.117a.82.82 0 00.954 1.134l3.488-.912a13.576 13.576 0 0010.044 2.603v7.183a3.45 3.45 0 003.445 3.445h11.602l5.187 4.245a.818.818 0 00.871.106.82.82 0 00.47-.742V37.57h1.558A3.45 3.45 0 0042 34.125V18.211a3.45 3.45 0 00-3.445-3.445zm1.804 19.359c0 .995-.809 1.805-1.804 1.805h-2.38a.82.82 0 00-.82.82v2.698l-4.051-3.315c-.223-.203-.419-.203-.858-.203h-11.58c-.994 0-1.803-.81-1.803-1.805v-7.518a13.582 13.582 0 009.704-10.2h11.788c.995 0 1.804.809 1.804 1.804v15.914z"/><path d="M32.793 28.596a.82.82 0 00-.35-1.561h-.335l-2.646-6.03a.821.821 0 00-1.502 0l-2.646 6.03h-.335a.82.82 0 00-.35 1.561l-.985 2.246a.82.82 0 001.502.66l1.24-2.827h4.65l1.24 2.826a.82.82 0 101.502-.659l-.985-2.245zm-5.687-1.561l1.605-3.658 1.605 3.658h-3.21zM4.545 5.365a.827.827 0 00.58-.24.826.826 0 00.24-.58.827.827 0 00-.24-.58.827.827 0 00-.58-.24.825.825 0 00-.58.24.827.827 0 00-.24.58c0 .215.087.427.24.58.152.152.364.24.58.24zM8.64 18.53a.82.82 0 10.79 1.438 9.394 9.394 0 004.059-4.404 9.396 9.396 0 004.06 4.404.818.818 0 001.114-.325.82.82 0 00-.325-1.114 7.758 7.758 0 01-3.94-5.645h3.641a.82.82 0 000-1.64h-3.73V7.825a.82.82 0 10-1.64 0v3.419H9.705a.82.82 0 100 1.64h2.876a7.757 7.757 0 01-3.94 5.645z"/></g><defs><clipPath id="clip0_22_4328"><path fill="#fff" d="M0 0h42v42H0z"/></clipPath></defs></svg>