<svg width="38" height="38" fill="none" xmlns="http://www.w3.org/2000/svg"><g clip-path="url(#clip0_22_4344)" fill="#013B43"><path d="M34.29 6.828h-3.118V3.711A3.715 3.715 0 0027.462 0H3.711A3.715 3.715 0 000 3.71v23.75a3.715 3.715 0 003.711 3.712h3.117v3.117A3.715 3.715 0 0010.54 38h23.75A3.715 3.715 0 0038 34.29V10.54a3.715 3.715 0 00-3.71-3.712zM3.71 29.688a2.23 2.23 0 01-2.226-2.227V3.71A2.23 2.23 0 013.71 1.484h23.75c1.228 0 2.227 1 2.227 2.227v23.75a2.229 2.229 0 01-2.227 2.226H3.711zm32.805 4.601a2.229 2.229 0 01-2.227 2.227H10.54a2.229 2.229 0 01-2.226-2.227v-3.117H27.46a3.715 3.715 0 003.711-3.711V8.313h3.117a2.23 2.23 0 012.227 2.226v23.75z"/><path d="M10.557 33.918h-.02a.742.742 0 100 1.484h.02a.742.742 0 100-1.484zm23.733 0h-21.6a.742.742 0 100 1.484h21.6a.742.742 0 000-1.484zM8.167 2.598h-.02a.742.742 0 100 1.484h.02a.742.742 0 100-1.484zm-2.153 0H3.711a.742.742 0 100 1.484h2.303a.742.742 0 000-1.484zm15.768 12.33a2.515 2.515 0 00-1.182-1.535l-3.63-2.096a2.505 2.505 0 00-.11-.068l-3.622-2.09a2.543 2.543 0 00-3.936 2.122v8.654c0 .03.002.06.005.09a2.54 2.54 0 002.537 2.446c.444 0 .883-.118 1.268-.341l3.748-2.164a.77.77 0 00.06-.04l3.654-2.108a2.53 2.53 0 001.208-2.87zm-1.536 1.182a1.046 1.046 0 01-.398.394l-.011.006-3.721 2.148a.728.728 0 00-.062.04l-3.685 2.127a1.05 1.05 0 01-1.579-.91.726.726 0 00-.004-.074v-8.58a1.057 1.057 0 011.69-.85l3.643 2.105a.99.99 0 01.053.033.843.843 0 00.038.023l3.65 2.107c.242.14.416.365.489.636.073.27.036.552-.103.795z"/></g><defs><clipPath id="clip0_22_4344"><path fill="#fff" d="M0 0h38v38H0z"/></clipPath></defs></svg>