<svg width="17" height="17" fill="none" xmlns="http://www.w3.org/2000/svg"><g clip-path="url(#clip0_14_2626)" fill="#A1ACAD"><path d="M4.958 0H2.833A2.833 2.833 0 000 2.833v2.125a2.833 2.833 0 002.833 2.834h2.125a2.833 2.833 0 002.834-2.834V2.833A2.833 2.833 0 004.958 0zm1.417 4.958a1.417 1.417 0 01-1.417 1.417H2.833a1.417 1.417 0 01-1.416-1.417V2.833a1.417 1.417 0 011.416-1.416h2.125a1.417 1.417 0 011.417 1.416v2.125zM14.166 0h-2.125a2.833 2.833 0 00-2.833 2.833v2.125a2.833 2.833 0 002.833 2.834h2.125A2.833 2.833 0 0017 4.958V2.833A2.833 2.833 0 0014.166 0zm1.417 4.958a1.417 1.417 0 01-1.417 1.417h-2.125a1.417 1.417 0 01-1.416-1.417V2.833a1.417 1.417 0 011.416-1.416h2.125a1.417 1.417 0 011.417 1.416v2.125zM4.958 9.208H2.833A2.833 2.833 0 000 12.042v2.125A2.833 2.833 0 002.833 17h2.125a2.833 2.833 0 002.834-2.833v-2.125a2.833 2.833 0 00-2.834-2.834zm1.417 4.959a1.417 1.417 0 01-1.417 1.416H2.833a1.417 1.417 0 01-1.416-1.416v-2.125a1.417 1.417 0 011.416-1.417h2.125a1.417 1.417 0 011.417 1.417v2.125zm7.791-4.959h-2.125a2.833 2.833 0 00-2.833 2.834v2.125A2.833 2.833 0 0012.041 17h2.125A2.833 2.833 0 0017 14.167v-2.125a2.833 2.833 0 00-2.834-2.834zm1.417 4.959a1.417 1.417 0 01-1.417 1.416h-2.125a1.417 1.417 0 01-1.416-1.416v-2.125a1.417 1.417 0 011.416-1.417h2.125a1.417 1.417 0 011.417 1.417v2.125z"/></g><defs><clipPath id="clip0_14_2626"><path fill="#fff" d="M0 0h17v17H0z"/></clipPath></defs></svg>