<svg width="17" height="17" fill="none" xmlns="http://www.w3.org/2000/svg"><g clip-path="url(#clip0_14_2631)" fill="#013B43"><path d="M4.958 4.25h11.334a.708.708 0 000-1.417H4.958a.708.708 0 100 1.417zm11.334 3.542H4.958a.708.708 0 100 1.416h11.334a.708.708 0 000-1.416zm0 4.958H4.958a.708.708 0 100 1.417h11.334a.708.708 0 000-1.417zM1.417 4.958a1.417 1.417 0 100-2.833 1.417 1.417 0 000 2.833zm0 4.959a1.417 1.417 0 100-2.834 1.417 1.417 0 000 2.834zm0 4.958a1.417 1.417 0 100-2.833 1.417 1.417 0 000 2.833z"/></g><defs><clipPath id="clip0_14_2631"><path fill="#fff" d="M0 0h17v17H0z"/></clipPath></defs></svg>