<svg width="40" height="40" fill="none" xmlns="http://www.w3.org/2000/svg"><g clip-path="url(#clip0_22_4375)" fill="#013B43"><path d="M23.718 15.158a5.208 5.208 0 00-3.704-1.534 5.246 5.246 0 00-5.24 5.239v8.434a5.245 5.245 0 005.24 5.239 5.245 5.245 0 005.239-5.239v-8.434a5.208 5.208 0 00-1.535-3.705zm-.088 12.14a3.62 3.62 0 01-3.616 3.615 3.62 3.62 0 01-3.617-3.616v-8.434a3.62 3.62 0 013.617-3.616c.966 0 1.874.376 2.557 1.058a3.595 3.595 0 011.06 2.558v8.434z"/><path d="M27.687 22.269a.811.811 0 00-.812.811v4.217a6.87 6.87 0 01-6.861 6.862 6.87 6.87 0 01-6.862-6.862V23.08a.811.811 0 10-1.622 0v4.217c0 4.405 3.373 8.036 7.673 8.445v3.447a.811.811 0 001.622 0v-3.447c4.299-.41 7.673-4.04 7.673-8.445V23.08a.811.811 0 00-.811-.811zm-.285-10.794C23.328 7.4 16.7 7.4 12.626 11.475a.812.812 0 001.147 1.147c3.441-3.44 9.04-3.44 12.481 0a.81.81 0 001.148 0 .812.812 0 000-1.147z"/><path d="M30.386 8.49c-5.72-5.718-15.025-5.718-20.744 0a.811.811 0 001.147 1.148c5.087-5.086 13.363-5.086 18.45 0a.809.809 0 001.146 0 .811.811 0 000-1.147z"/><path d="M31.5 3.898A18.84 18.84 0 0018.855.035a18.84 18.84 0 00-12.18 5.49.811.811 0 001.148 1.147C13.927.568 23.68-.07 30.51 5.184a.811.811 0 10.99-1.286zm1.278 1.389c-1.044 0-1.046 1.623 0 1.623 1.044 0 1.046-1.623 0-1.623z"/></g><defs><clipPath id="clip0_22_4375"><path fill="#fff" d="M0 0h40v40H0z"/></clipPath></defs></svg>