<svg width="15" height="15" fill="none" xmlns="http://www.w3.org/2000/svg"><path d="M7.5.417a7.08 7.08 0 00-5.855 3.1A7.027 7.027 0 00.416 7.5c0 1.43.425 2.808 1.23 3.983a7.08 7.08 0 0011.708 0A7.026 7.026 0 0014.582 7.5c0-1.43-.425-2.808-1.23-3.983A7.074 7.074 0 007.5.417zm4.658 2.916h-1.854c-.242-.708-.546-1.308-.896-1.779a6.297 6.297 0 012.75 1.78zm-7.254 3.75c.029-1.033.175-2.033.416-2.916h4.354c.242.883.388 1.883.417 2.916H4.904zm5.191.834a12.529 12.529 0 01-.416 2.916H5.32a12.527 12.527 0 01-.416-2.916h5.191zM7.5 1.25c.696 0 1.4.77 1.905 2.083h-3.81C6.1 2.021 6.804 1.25 7.5 1.25zm-1.908.304c-.35.471-.654 1.071-.896 1.78H2.841a6.297 6.297 0 012.75-1.78zm-3.38 2.613H4.45a13.41 13.41 0 00-.379 2.916H1.262a6.262 6.262 0 01.95-2.916zm0 6.666a6.215 6.215 0 01-.95-2.916h2.81c.028 1.025.158 2.025.378 2.916H2.212zm.63.834h1.854c.242.708.546 1.308.896 1.779a6.296 6.296 0 01-2.75-1.78zM7.5 13.75c-.695 0-1.4-.77-1.904-2.083h3.809C8.9 12.979 8.196 13.75 7.5 13.75zm1.909-.304c.35-.467.654-1.071.896-1.78h1.854a6.297 6.297 0 01-2.75 1.78zm3.379-2.613H10.55a13.41 13.41 0 00.38-2.916h2.808a6.261 6.261 0 01-.95 2.916zm-1.859-3.75a13.94 13.94 0 00-.379-2.916h2.238a6.22 6.22 0 01.95 2.916h-2.809z" fill="#6E7879"/></svg>