<svg width="90" height="21" fill="none" xmlns="http://www.w3.org/2000/svg"><path d="M17.075 17.081a9.872 9.872 0 01-6.897 2.854A9.883 9.883 0 013.28 17.08a9.872 9.872 0 01-2.853-6.897A9.882 9.882 0 013.28 3.286 9.872 9.872 0 0110.178.433a9.882 9.882 0 016.897 2.853 9.872 9.872 0 012.854 6.898 9.882 9.882 0 01-2.854 6.897zm.31-14.098A10.298 10.298 0 0010.182 0a10.298 10.298 0 00-7.2 2.983A10.308 10.308 0 000 10.183c0 2.663 1.095 5.32 2.983 7.201a10.297 10.297 0 007.2 2.983c2.668 0 5.314-1.095 7.201-2.983a10.298 10.298 0 002.983-7.2c0-2.669-1.095-5.32-2.983-7.201z" fill="#fff"/><path d="M9.616 9.863v.646l.562.326.561-.326v-.646l-.561-.32-.562.32zm1.05-1.55V6.937c0-.13-.05-.253-.14-.343a.494.494 0 00-.342-.14.494.494 0 00-.343.14c-.09.09-.14.22-.14.343v1.376l.488.28.489-.28h-.012zm-3.544 3.078a.482.482 0 00-.224.298.483.483 0 00.348.595.478.478 0 00.37-.05l1.191-.686v-.561l-.488-.281-1.191.685h-.006zm6.111 0l-1.19-.685-.489.28v.562l1.19.686a.533.533 0 00.372.05.521.521 0 00.297-.225.504.504 0 00.05-.37.52.52 0 00-.224-.298h-.006z" fill="#fff"/><path d="M17.216 14.351s-.062.017-.09.011l-2.14-.398a.254.254 0 01-.135-.079.265.265 0 01-.062-.146.773.773 0 00-.168-.421.733.733 0 00-.382-.247.786.786 0 00-.455.017 2 2 0 01-.815.1 1.99 1.99 0 01-.78-.247l-.635-.365v4.162h-.893V12.06l-.489-.281-.488.28v4.68H8.79v-4.163l-.634.365a1.91 1.91 0 01-1.595.146.784.784 0 00-.455-.016.78.78 0 00-.382.247.774.774 0 00-.169.421c0 .05-.028.107-.062.146a.254.254 0 01-.134.079l-2.14.399c-.029 0-.062 0-.09-.012a.143.143 0 01-.068-.062.125.125 0 01-.017-.09c0-.027.017-.061.034-.084l1.416-1.651a.255.255 0 01.134-.079.32.32 0 01.158.017.76.76 0 001.067-.545c.05-.27.163-.528.32-.752a1.82 1.82 0 01.607-.55l.634-.366-3.606-2.084.444-.775 4.05 2.337.488-.281v-.562L4.74 6.488l.444-.776L8.79 7.796v-.73a1.894 1.894 0 01.668-1.45.77.77 0 00.242-.381.787.787 0 00-.022-.455.77.77 0 00-.28-.36.233.233 0 01-.096-.123.25.25 0 010-.157l.724-2.05a.144.144 0 01.056-.073.152.152 0 01.085-.029.19.19 0 01.09.029.183.183 0 01.056.073l.724 2.05a.25.25 0 010 .157.232.232 0 01-.095.124.808.808 0 00-.281.359.746.746 0 00.219.837c.208.18.376.404.494.652.113.252.174.522.174.797v.73l3.606-2.084.444.776-4.05 2.336v.562l.489.28 4.05-2.336.444.775-3.606 2.084.634.365c.236.135.444.326.607.55.157.225.27.484.32.753a.732.732 0 00.213.4.784.784 0 00.405.207c.152.028.309 0 .45-.062a.251.251 0 01.291.062l1.416 1.651s.034.05.034.085c0 .033 0 .061-.023.09a.143.143 0 01-.067.061h.01zm-.921-10.279a8.758 8.758 0 00-6.117-2.533A8.758 8.758 0 004.06 4.072a8.758 8.758 0 00-2.533 6.117c0 2.264.932 4.516 2.533 6.117a8.758 8.758 0 006.117 2.533 8.758 8.758 0 006.117-2.533 8.758 8.758 0 002.533-6.117 8.758 8.758 0 00-2.533-6.117zm52.58 14.604V1.702h2.971v6.504h3.258V1.702h3.039v16.974h-3.04v-7.453h-3.257v7.453h-2.971zM25.4 12.11L22.097 1.702h2.966l2.033 6.611 2.247-6.611h2.78l-3.42 10.071v6.903H25.4V12.11zm17.654 6.566h2.662V5.881l2.27 11.121h2.488l2.016-11.3v12.974h3.117V1.702h-4.836l-1.426 8.071-1.652-8.071h-4.64v16.974zm40.324-6.779l1.263-7.589 1.225 7.589h-2.494.006zm3.82-10.195h-4.595l-3.101 16.974h2.752l.657-3.948h3.421l.64 3.948H90L87.197 1.702zm-26.35 10.195l1.264-7.589 1.224 7.589h-2.493.005zm3.82-10.195h-4.595l-3.1 16.974h2.752l.657-3.948h3.42l.64 3.948h3.028L64.668 1.702zM35.027 11.897l1.264-7.589 1.23 7.589h-2.494zm3.82-10.195h-4.595l-3.1 16.974h2.752l.657-3.948h3.42l.64 3.948h3.028L38.847 1.702z" fill="#fff"/></svg>