<svg width="90" height="28" fill="none" xmlns="http://www.w3.org/2000/svg"><g clip-path="url(#clip0_6_406)"><path d="M47.433 7.034a1.82 1.82 0 01-1.827 1.822 1.82 1.82 0 01-1.828-1.822c0-1.01.788-1.822 1.828-1.822 1.04.028 1.827.842 1.827 1.822zm-7.535 3.671v.448s-.871-1.12-2.726-1.12c-3.065 0-5.455 2.326-5.455 5.55 0 3.222 2.36 5.549 5.455 5.549 1.884 0 2.726-1.15 2.726-1.15v.477c0 .224.168.392.393.392h2.277V10.314h-2.277a.401.401 0 00-.393.391zm0 6.756c-.422.615-1.264 1.15-2.277 1.15-1.8 0-3.176-1.121-3.176-3.029 0-1.907 1.378-3.028 3.176-3.028.983 0 1.884.562 2.277 1.15v3.757zm4.359-7.147h2.7v10.539h-2.7v-10.54zm40.317-.281c-1.855 0-2.727 1.12-2.727 1.12V5.241h-2.699v15.612h2.277a.401.401 0 00.393-.392v-.477s.872 1.15 2.727 1.15c3.064 0 5.455-2.354 5.455-5.55 0-3.195-2.39-5.55-5.426-5.55v-.001zm-.45 8.548c-1.04 0-1.855-.532-2.277-1.15v-3.756c.422-.561 1.322-1.15 2.277-1.15 1.8 0 3.177 1.12 3.177 3.028s-1.378 3.028-3.177 3.028zm-6.381-3.98v6.277h-2.7v-5.97c0-1.738-.562-2.437-2.08-2.437-.814 0-1.659.42-2.192 1.036v7.344h-2.7V10.314h2.137a.4.4 0 01.393.391v.448c.787-.812 1.827-1.12 2.867-1.12 1.18 0 2.166.337 2.952 1.01.955.784 1.32 1.794 1.32 3.56l.003-.003zM61.52 10.03c-1.855 0-2.727 1.12-2.727 1.12V5.24h-2.7v15.612h2.278a.401.401 0 00.393-.392v-.477s.872 1.15 2.727 1.15c3.064 0 5.455-2.354 5.455-5.55.027-3.195-2.361-5.55-5.426-5.55v-.003zm-.45 8.548c-1.04 0-1.855-.532-2.277-1.15v-3.756c.422-.561 1.321-1.15 2.277-1.15 1.8 0 3.176 1.12 3.176 3.028s-1.376 3.03-3.176 3.03zm-7.31-8.548c.815 0 1.237.14 1.237.14v2.495s-2.25-.757-3.655.841v7.371h-2.699V10.313h2.277c.225 0 .393.197.393.392v.448c.506-.588 1.603-1.12 2.445-1.12l.002-.002zm-28.03 9.865c-.141-.337-.282-.701-.423-1.009-.224-.505-.45-.98-.646-1.43l-.028-.027A293.285 293.285 0 0018.42 4.76l-.085-.167c-.224-.421-.45-.87-.674-1.317-.281-.505-.563-1.037-1.012-1.542C15.748.616 14.454 0 13.076 0c-1.378 0-2.672.616-3.599 1.682-.422.504-.73 1.036-1.012 1.54a58.6 58.6 0 01-.674 1.318l-.084.168a326.43 326.43 0 00-6.214 12.669l-.027.056c-.198.448-.423.926-.647 1.43-.141.308-.282.645-.423 1.01C.031 20.909-.082 21.89.058 22.9a5.958 5.958 0 003.655 4.653c.731.308 1.49.448 2.278.448.224 0 .506-.027.73-.057a7.453 7.453 0 002.811-.953c1.153-.644 2.25-1.57 3.487-2.914 1.237 1.344 2.361 2.27 3.487 2.915a7.443 7.443 0 003.542 1.009c.788 0 1.575-.14 2.277-.448 1.968-.786 3.346-2.578 3.655-4.653.225-.98.113-1.962-.252-3l.002-.005zm-12.68 1.458c-1.518-1.906-2.502-3.7-2.84-5.212-.14-.645-.168-1.207-.084-1.71.057-.447.225-.841.45-1.176.533-.756 1.434-1.234 2.474-1.234 1.04 0 1.968.449 2.475 1.234.224.337.393.729.45 1.177.083.504.056 1.093-.085 1.709-.338 1.484-1.321 3.279-2.84 5.212zm11.218 1.317a4.168 4.168 0 01-2.559 3.28c-.674.28-1.405.364-2.136.28a5.523 5.523 0 01-2.137-.729c-1.012-.56-2.025-1.43-3.205-2.718 1.855-2.27 2.98-4.345 3.403-6.194.197-.87.224-1.655.14-2.383a4.558 4.558 0 00-.758-1.906c-.872-1.26-2.334-1.99-3.964-1.99s-3.092.757-3.964 1.99a4.543 4.543 0 00-.758 1.906 5.794 5.794 0 00.14 2.383c.423 1.849 1.576 3.951 3.403 6.221-1.153 1.29-2.193 2.16-3.205 2.719a5.534 5.534 0 01-2.137.728 4.5 4.5 0 01-2.136-.28 4.168 4.168 0 01-2.558-3.28 4.648 4.648 0 01.252-2.186c.084-.28.225-.56.365-.896.198-.448.422-.926.647-1.401l.028-.057c1.94-4.175 4.02-8.437 6.186-12.585l.084-.168c.225-.42.45-.869.674-1.29.225-.448.479-.868.788-1.233.59-.672 1.378-1.036 2.25-1.036.871 0 1.659.364 2.25 1.036.308.365.562.785.787 1.234.225.42.45.869.674 1.29l.084.167a370.159 370.159 0 016.157 12.613v.027c.225.448.422.953.647 1.401.14.337.282.616.366.896.224.73.308 1.43.197 2.16l-.005.001z" fill="#EA535B"/></g><defs><clipPath id="clip0_6_406"><path fill="#fff" d="M0 0h90v28H0z"/></clipPath></defs></svg>