<svg width="61" height="25" fill="none" xmlns="http://www.w3.org/2000/svg"><g clip-path="url(#clip0_6_412)"><path d="M28.923 12.155v7.299h-2.248V1.437h5.96c1.439-.03 2.82.531 3.867 1.566a5.034 5.034 0 011.606 3.793 5.097 5.097 0 01-1.606 3.822c-1.047 1.02-2.33 1.537-3.852 1.537h-3.727zm0-8.506v6.293h3.768a2.897 2.897 0 002.22-.934c1.186-1.178 1.2-3.117.056-4.339l-.056-.057a2.86 2.86 0 00-2.22-.948l-3.768-.015zm14.363 3.075c1.661 0 2.974.46 3.937 1.365.963.92 1.437 2.17 1.437 3.764v7.586h-2.15v-1.71h-.097c-.935 1.409-2.164 2.113-3.713 2.113-1.312 0-2.429-.402-3.308-1.207a3.859 3.859 0 01-1.326-3.017c0-1.28.474-2.285 1.41-3.046.935-.762 2.191-1.135 3.754-1.135 1.34 0 2.43.258 3.295.747v-.532a2.68 2.68 0 00-.922-2.04 3.214 3.214 0 00-2.163-.848c-1.256 0-2.247.546-2.987 1.638L38.47 9.123c1.075-1.594 2.68-2.399 4.816-2.399zm-2.903 8.951c0 .604.279 1.164.74 1.509a2.695 2.695 0 001.745.603 3.52 3.52 0 002.526-1.077c.74-.719 1.117-1.567 1.117-2.544-.698-.574-1.675-.862-2.932-.862-.907 0-1.675.23-2.289.676-.6.46-.907 1.02-.907 1.695zM61 7.126l-7.51 17.759h-2.317l2.792-6.207-4.942-11.537h2.443l3.56 8.85h.055l3.476-8.85L61 7.126z" fill="#5F6368"/><path d="M19.835 10.575c0-.705-.055-1.409-.167-2.098H10.19v3.98h5.43a4.803 4.803 0 01-2.01 3.146v2.586h3.238c1.899-1.796 2.988-4.454 2.988-7.614z" fill="#4285F4"/><path d="M10.19 20.69c2.708 0 4.997-.92 6.658-2.5l-3.238-2.587c-.907.632-2.066.992-3.42.992-2.624 0-4.844-1.825-5.64-4.268H1.215V15c1.703 3.477 5.18 5.69 8.976 5.69z" fill="#34A853"/><path d="M4.55 12.327a6.416 6.416 0 010-3.965V5.704H1.215a10.502 10.502 0 00-1.078 4.64c0 1.613.37 3.203 1.078 4.642l3.337-2.659z" fill="#FBBC04"/><path d="M10.19 4.095a5.326 5.326 0 013.853 1.551l2.861-2.945A9.446 9.446 0 0010.19 0C6.393 0 2.917 2.213 1.214 5.704l3.337 2.672c.795-2.457 3.015-4.281 5.639-4.281z" fill="#EA4335"/></g><defs><clipPath id="clip0_6_412"><path fill="#fff" d="M0 0h61v25H0z"/></clipPath></defs></svg>