<svg width="66" height="24" fill="none" xmlns="http://www.w3.org/2000/svg"><g clip-path="url(#clip0_6_408)"><path fill-rule="evenodd" clip-rule="evenodd" d="M8.454 1.063C4.159 6.16.044 12.48 0 17.202c-.017 1.778.543 3.329 1.89 4.505 1.94 1.691 4.074 2.29 6.2 2.293 3.107 0 6.189-1.26 8.606-2.24C20.763 20.118 65.722.39 65.722.39c.434-.219.352-.491-.191-.355-.218.057-48.94 13.394-48.94 13.394-.94.268-1.9.404-2.835.409-3.746.022-7.076-2.077-7.05-6.504.01-1.73.535-3.82 1.752-6.276l-.004.005z" fill="#231F20"/></g><defs><clipPath id="clip0_6_408"><path fill="#fff" d="M0 0h66v24H0z"/></clipPath></defs></svg>