<svg width="97" height="29" fill="none" xmlns="http://www.w3.org/2000/svg"><g clip-path="url(#clip0_6_404)"><path d="M14.546 0C6.513 0 0 6.492 0 14.5 0 22.509 6.513 29 14.546 29c8.034 0 14.547-6.491 14.547-14.5C29.093 6.492 22.58 0 14.546 0zm6.671 20.913a.908.908 0 01-1.246.3c-3.416-2.08-7.716-2.55-12.78-1.398a.906.906 0 01-1.085-.68.902.902 0 01.682-1.081c5.541-1.263 10.294-.72 14.129 1.616a.902.902 0 01.3 1.243zm1.78-3.948a1.137 1.137 0 01-1.56.372c-3.909-2.395-9.87-3.089-14.494-1.69a1.137 1.137 0 01-1.416-.752 1.131 1.131 0 01.757-1.41c5.282-1.598 11.85-.824 16.34 1.926.533.327.702 1.024.373 1.554zm.154-4.111c-4.69-2.776-12.424-3.031-16.9-1.677a1.356 1.356 0 11-.79-2.595c5.139-1.555 13.68-1.255 19.078 1.94.647.382.859 1.214.476 1.858a1.362 1.362 0 01-1.864.474zm16.425.532c-2.512-.597-2.959-1.016-2.959-1.897 0-.831.786-1.391 1.954-1.391 1.133 0 2.256.425 3.433 1.3a.165.165 0 00.233-.037l1.226-1.723a.164.164 0 00-.031-.223c-1.401-1.12-2.98-1.666-4.824-1.666-2.711 0-4.606 1.623-4.606 3.944 0 2.489 1.634 3.37 4.458 4.05 2.403.552 2.809 1.014 2.809 1.84 0 .917-.82 1.486-2.14 1.486-1.466 0-2.662-.492-4-1.647a.173.173 0 00-.12-.04.164.164 0 00-.113.059l-1.375 1.63a.162.162 0 00.016.228c1.556 1.385 3.47 2.117 5.536 2.117 2.922 0 4.81-1.592 4.81-4.055.006-2.08-1.243-3.231-4.302-3.973l-.005-.002zm10.919-2.47c-1.267 0-2.306.498-3.162 1.517v-1.147a.164.164 0 00-.165-.164H44.92a.164.164 0 00-.164.164V24.03c0 .09.073.164.164.164h2.25c.09 0 .164-.073.164-.164v-4.023c.856.959 1.895 1.427 3.162 1.427 2.353 0 4.736-1.806 4.736-5.258.003-3.453-2.38-5.26-4.734-5.26h-.002zm2.12 5.26c0 1.758-1.086 2.985-2.641 2.985-1.538 0-2.698-1.283-2.698-2.985s1.16-2.985 2.698-2.985c1.53 0 2.642 1.255 2.642 2.985zm8.722-5.26c-3.03 0-5.405 2.327-5.405 5.298 0 2.938 2.358 5.24 5.368 5.24 3.042 0 5.424-2.319 5.424-5.278 0-2.949-2.366-5.259-5.387-5.259zm0 8.262c-1.612 0-2.827-1.29-2.827-3.003 0-1.719 1.173-2.966 2.79-2.966 1.623 0 2.846 1.29 2.846 3.004 0 1.719-1.18 2.965-2.809 2.965zm11.859-8.056h-2.475V8.6a.164.164 0 00-.164-.164h-2.249a.165.165 0 00-.164.164v2.522h-1.082a.164.164 0 00-.163.164v1.927c0 .09.073.164.163.164h1.082v4.985c0 2.015 1.006 3.036 2.99 3.036.806 0 1.475-.166 2.106-.522a.164.164 0 00.083-.143V18.9a.164.164 0 00-.238-.147 2.841 2.841 0 01-1.32.317c-.722 0-1.044-.326-1.044-1.058v-4.633h2.475c.09 0 .164-.074.164-.164v-1.927a.16.16 0 00-.162-.164l-.002-.001zm8.623.01v-.31c0-.911.35-1.318 1.136-1.318.47 0 .846.093 1.267.233a.165.165 0 00.217-.156V7.692a.164.164 0 00-.117-.157 6.19 6.19 0 00-1.869-.268c-2.077 0-3.175 1.166-3.175 3.37v.475h-1.08a.165.165 0 00-.165.164v1.937c0 .09.074.164.165.164h1.08v7.69c0 .09.073.164.164.164h2.249c.09 0 .165-.074.165-.165v-7.688h2.1l3.216 7.687c-.365.808-.724.968-1.214.968-.397 0-.814-.117-1.24-.35a.169.169 0 00-.132-.012.166.166 0 00-.097.088l-.762 1.667a.163.163 0 00.07.212c.797.43 1.515.613 2.403.613 1.66 0 2.578-.771 3.387-2.846l3.902-10.049a.164.164 0 00-.153-.224h-2.341a.165.165 0 00-.156.11l-2.398 6.829-2.627-6.833a.164.164 0 00-.154-.106h-3.842zm-5-.01H74.57a.165.165 0 00-.164.164v9.78c0 .09.074.165.164.165h2.25c.09 0 .164-.074.164-.165v-9.78a.162.162 0 00-.102-.151.165.165 0 00-.063-.012v-.001zm-1.111-4.453a1.61 1.61 0 00-1.614 1.607c0 .888.723 1.608 1.614 1.608.89 0 1.612-.72 1.612-1.608a1.61 1.61 0 00-1.611-1.607h-.001zm19.701 7.597c-.89 0-1.583-.712-1.583-1.577 0-.866.702-1.586 1.591-1.586.89 0 1.583.712 1.583 1.577a1.59 1.59 0 01-1.591 1.586zm.009-3.006c-.81 0-1.424.642-1.424 1.429 0 .786.609 1.42 1.416 1.42.81 0 1.424-.642 1.424-1.43 0-.786-.61-1.42-1.416-1.42zm.35 1.582l.448.625h-.377l-.403-.574h-.347v.574h-.316V11.81h.741c.386 0 .64.196.64.528.002.271-.156.437-.384.503h-.001zm-.267-.747h-.412v.523h.412c.206 0 .329-.1.329-.262 0-.17-.124-.261-.329-.261z" fill="#2EBD59"/></g><defs><clipPath id="clip0_6_404"><path fill="#fff" d="M0 0h97v29H0z"/></clipPath></defs></svg>