<svg width="64" height="22" fill="none" xmlns="http://www.w3.org/2000/svg"><g clip-path="url(#clip0_6_393)" fill="#010202"><path d="M3.682 15.712a5.41 5.41 0 001.124 1.823 4.834 4.834 0 001.7 1.159 5.597 5.597 0 002.138.402c.749 0 1.45-.14 2.106-.418a5.184 5.184 0 002.855-2.981c.27-.7.406-1.483.406-2.349V0h3.276v21.63h-3.245v-2.01a7.525 7.525 0 01-2.574 1.762A8.23 8.23 0 018.269 22c-1.165 0-2.252-.2-3.26-.602a7.642 7.642 0 01-2.622-1.715A8.082 8.082 0 01.64 17.01C.213 15.97 0 14.81 0 13.534V0h3.276v13.348c0 .866.136 1.653.406 2.364zM22.935 0v7.88a8.35 8.35 0 012.528-1.716c.957-.422 1.997-.633 3.12-.633a8.3 8.3 0 013.277.649 8.376 8.376 0 012.652 1.761 8.283 8.283 0 011.779 2.626 8.005 8.005 0 01.655 3.214 7.894 7.894 0 01-.655 3.198 8.33 8.33 0 01-1.779 2.61 8.376 8.376 0 01-2.652 1.762 8.3 8.3 0 01-3.277.649 7.752 7.752 0 01-3.136-.634 8.294 8.294 0 01-2.543-1.714v1.977h-3.12V0h3.151zm.36 15.913c.28.66.67 1.236 1.17 1.73a5.611 5.611 0 001.747 1.174 5.357 5.357 0 002.153.433 5.28 5.28 0 002.122-.433 5.46 5.46 0 001.732-1.174 5.728 5.728 0 001.17-1.73c.291-.66.437-1.37.437-2.132s-.146-1.478-.437-2.148a5.675 5.675 0 00-1.17-1.745 5.256 5.256 0 00-1.732-1.159 5.45 5.45 0 00-2.122-.417c-.749 0-1.456.139-2.122.417a5.436 5.436 0 00-2.933 2.904 5.325 5.325 0 00-.437 2.148c0 .762.14 1.473.421 2.132zm15.429-5.315a8.398 8.398 0 011.717-2.61 7.975 7.975 0 012.59-1.777c.998-.433 2.08-.649 3.245-.649 1.144 0 2.205.206 3.183.618.978.412 1.82.984 2.527 1.715a7.828 7.828 0 011.654 2.595c.395 1 .593 2.086.593 3.26v1.02h-12.95c.104.639.312 1.23.624 1.777a5.36 5.36 0 002.762 2.364c.593.226 1.222.34 1.888.34 1.893 0 3.422-.773 4.587-2.318l2.278 1.668a8.454 8.454 0 01-2.933 2.472c-1.165.598-2.476.896-3.932.896a8.863 8.863 0 01-3.323-.618 8.101 8.101 0 01-2.684-1.73 8.206 8.206 0 01-1.794-2.611c-.437-1-.656-2.086-.656-3.26a8.04 8.04 0 01.624-3.152zm4.385-1.22c-.884.731-1.472 1.704-1.763 2.92h9.704c-.27-1.216-.847-2.189-1.732-2.92-.884-.731-1.919-1.097-3.104-1.097-1.186 0-2.221.366-3.105 1.097zm17.021.355c-.665.721-.998 1.7-.998 2.935v8.961H55.98V5.871h3.12v1.946a4.415 4.415 0 011.545-1.514c.635-.37 1.389-.556 2.263-.556H64v2.905h-1.31c-1.04 0-1.894.36-2.56 1.081z"/></g><defs><clipPath id="clip0_6_393"><path fill="#fff" d="M0 0h64v22H0z"/></clipPath></defs></svg>