<svg width="59" height="19" fill="none" xmlns="http://www.w3.org/2000/svg"><path d="M30.513 6.05c-.033 2.636 2.366 4.107 4.173 4.982 1.856.897 2.48 1.473 2.473 2.275-.014 1.228-1.481 1.77-2.854 1.791-2.395.037-3.788-.642-4.895-1.156l-.863 4.01c1.11.51 3.168.953 5.3.972 5.007 0 8.283-2.455 8.3-6.261.02-4.83-6.726-5.098-6.68-7.257.016-.655.645-1.353 2.023-1.531.682-.09 2.566-.158 4.7.818l.838-3.88C41.88.398 40.405 0 38.568 0c-4.713 0-8.028 2.488-8.055 6.05zM51.081.334c-.915 0-1.685.53-2.029 1.343L41.9 18.639h5.003l.996-2.733h6.114l.577 2.733H59L55.152.334H51.08zm.7 4.945l1.443 6.874H49.27l2.51-6.874zM24.447.334L20.503 18.64h4.768L29.213.334h-4.766zm-7.053 0l-4.962 12.46L10.424 2.2C10.19 1.017 9.26.334 8.226.334H.113L0 .866c1.665.359 3.558.938 4.704 1.557.701.378.902.71 1.132 1.609l3.802 14.607h5.039L22.4.334h-5.007z" fill="url(#paint0_linear_6_400)"/><defs><linearGradient id="paint0_linear_6_400" x1="27.125" y1="19.304" x2="27.669" y2="-.132" gradientUnits="userSpaceOnUse"><stop stop-color="#222357"/><stop offset="1" stop-color="#254AA5"/></linearGradient></defs></svg>