<svg xmlns="http://www.w3.org/2000/svg" width="86" height="19"><defs><clipPath id="a"><path data-name="Прямоугольник 4549" fill="#fff" d="M0 0h86v19H0z"/></clipPath></defs><g clip-path="url(#a)"><path data-name="Контур 7278" d="M32.122 5.469a5.632 5.632 0 010 8.061 5.868 5.868 0 01-8.2 0 5.632 5.632 0 010-8.061 5.868 5.868 0 018.2 0zM28.028 0a9.718 9.718 0 016.827 2.782 9.387 9.387 0 010 13.435 9.78 9.78 0 01-13.665 0 9.387 9.387 0 010-13.435A9.718 9.718 0 0128.017 0zm24.386 5.469a5.632 5.632 0 010 8.061 5.868 5.868 0 01-8.2 0 5.632 5.632 0 010-8.061 5.868 5.868 0 018.2 0zm2.733-2.687a9.387 9.387 0 010 13.435 9.78 9.78 0 01-13.665 0 9.387 9.387 0 010-13.435 9.781 9.781 0 0113.665 0zM3.865 18.953l.966.047h14.495l-.048-.949a2.96 2.96 0 00-2.851-2.8l-.966-.047h-8.7l11.6-11.4-.048-.949A2.9 2.9 0 0015.46.048L14.494 0H0l.048.949A2.974 2.974 0 002.9 3.753l.967.047h8.7L.966 15.2l.048.949a2.931 2.931 0 002.851 2.8zM70.019 5.694a4.051 4.051 0 01.472 1.906l.048.95v6.65l.048.949a2.945 2.945 0 002.852 2.8L74.4 19V8.55l.048-.95a4.087 4.087 0 01.476-1.913 3.9 3.9 0 016.688.012 4.112 4.112 0 01.47 1.9l.048.949V15.2l.048.949a2.934 2.934 0 002.852 2.8L86 19V7.6A7.666 7.666 0 0078.27 0a7.766 7.766 0 00-5.8 2.573A7.829 7.829 0 0062.346 1.3a5.391 5.391 0 00-3.4-1.3v19l.966-.047a2.892 2.892 0 002.851-2.8l.048-.95V8.55l.048-.95a4.091 4.091 0 01.474-1.909 3.9 3.9 0 016.687 0z" fill="#2d8cff" fill-rule="evenodd"/></g></svg>