<svg width="135" height="45" fill="none" xmlns="http://www.w3.org/2000/svg"><path d="M14.436 36.396c-1.848 0-3.576-.336-5.184-1.008a13.363 13.363 0 01-4.176-2.772 13.363 13.363 0 01-2.772-4.176c-.672-1.608-1.008-3.324-1.008-5.148 0-1.824.324-3.516.972-5.076a12.933 12.933 0 012.772-4.14c1.2-1.2 2.592-2.124 4.176-2.772 1.584-.672 3.3-1.008 5.148-1.008 1.872 0 3.6.336 5.184 1.008a12.196 12.196 0 014.14 2.772 12.65 12.65 0 012.808 4.14c.672 1.584 1.008 3.288 1.008 5.112 0 1.824-.336 3.528-1.008 5.112a13.06 13.06 0 01-2.808 4.176 12.933 12.933 0 01-4.14 2.772c-1.56.672-3.264 1.008-5.112 1.008zm-.072-4.572c1.632 0 3.048-.36 4.248-1.08 1.2-.72 2.136-1.716 2.808-2.988.696-1.272 1.044-2.76 1.044-4.464 0-1.248-.192-2.388-.576-3.42a7.578 7.578 0 00-1.656-2.664 7.288 7.288 0 00-2.556-1.764c-.984-.408-2.088-.612-3.312-.612-1.584 0-2.988.36-4.212 1.08-1.2.696-2.148 1.68-2.844 2.952-.672 1.272-1.008 2.748-1.008 4.428 0 1.272.192 2.436.576 3.492.408 1.056.96 1.956 1.656 2.7a7.524 7.524 0 002.556 1.728c1.008.408 2.1.612 3.276.612zm25.085 4.536c-1.248 0-2.376-.252-3.384-.756-1.008-.528-1.812-1.236-2.412-2.124-.6-.888-.924-1.908-.972-3.06v-6.156c.048-1.152.372-2.172.972-3.06a6.74 6.74 0 012.412-2.16c1.008-.528 2.136-.792 3.384-.792 1.608 0 3.048.396 4.32 1.188 1.272.792 2.268 1.872 2.988 3.24.744 1.368 1.116 2.916 1.116 4.644 0 1.704-.372 3.24-1.116 4.608-.72 1.368-1.716 2.448-2.988 3.24-1.272.792-2.712 1.188-4.32 1.188zm-.828-4.356c.864 0 1.632-.192 2.304-.576a4.114 4.114 0 001.548-1.656c.384-.72.576-1.548.576-2.484 0-.912-.192-1.716-.576-2.412a3.83 3.83 0 00-1.548-1.656c-.672-.408-1.44-.612-2.304-.612-.84 0-1.596.204-2.268.612-.672.384-1.2.936-1.584 1.656-.36.696-.54 1.5-.54 2.412 0 .936.18 1.764.54 2.484a4.47 4.47 0 001.548 1.656c.672.384 1.44.576 2.304.576zm-8.82 11.268v-24.66h4.716v4.572l-.792 4.212.756 4.212v11.664h-4.68zm29.732-6.912c-1.248 0-2.376-.252-3.384-.756-1.008-.528-1.812-1.236-2.412-2.124-.6-.888-.924-1.908-.972-3.06v-6.156c.048-1.152.372-2.172.972-3.06a6.74 6.74 0 012.412-2.16c1.008-.528 2.136-.792 3.384-.792 1.608 0 3.048.396 4.32 1.188 1.272.792 2.268 1.872 2.988 3.24.744 1.368 1.116 2.916 1.116 4.644 0 1.704-.372 3.24-1.116 4.608-.72 1.368-1.716 2.448-2.988 3.24-1.272.792-2.712 1.188-4.32 1.188zm-.828-4.356c.864 0 1.632-.192 2.304-.576a4.114 4.114 0 001.548-1.656c.384-.72.576-1.548.576-2.484 0-.912-.192-1.716-.576-2.412a3.83 3.83 0 00-1.548-1.656c-.672-.408-1.44-.612-2.304-.612-.84 0-1.596.204-2.268.612-.672.384-1.2.936-1.584 1.656-.36.696-.54 1.5-.54 2.412 0 .936.18 1.764.54 2.484a4.47 4.47 0 001.548 1.656c.672.384 1.44.576 2.304.576zm-8.82 11.268v-24.66h4.716v4.572l-.792 4.212.756 4.212v11.664h-4.68zM69.969 36V18.612h4.752V36H69.97zm2.376-20.196c-.768 0-1.404-.252-1.908-.756-.504-.528-.756-1.176-.756-1.944 0-.744.252-1.38.756-1.908s1.14-.792 1.908-.792c.792 0 1.428.264 1.908.792.504.528.756 1.164.756 1.908 0 .768-.252 1.416-.756 1.944-.48.504-1.116.756-1.908.756zm12.89 20.556c-1.536 0-2.904-.324-4.104-.972a7.137 7.137 0 01-2.772-2.7c-.672-1.152-1.008-2.484-1.008-3.996v-10.08h4.752v9.972c0 .72.12 1.344.36 1.872.24.504.6.888 1.08 1.152.48.264 1.044.396 1.692.396.984 0 1.752-.3 2.304-.9.552-.6.828-1.44.828-2.52v-9.972h4.716v10.08c0 1.536-.336 2.88-1.008 4.032-.648 1.152-1.572 2.052-2.772 2.7-1.176.624-2.532.936-4.068.936zM95.758 36V18.612h4.716V36h-4.716zm11.34 0V25.74c0-1.008-.324-1.788-.972-2.34-.624-.576-1.404-.864-2.34-.864a3.59 3.59 0 00-1.692.396c-.504.24-.9.6-1.188 1.08-.288.48-.432 1.056-.432 1.728l-1.836-.9c0-1.344.288-2.508.864-3.492a6.085 6.085 0 012.412-2.268c1.008-.552 2.148-.828 3.42-.828 1.2 0 2.292.276 3.276.828a5.904 5.904 0 012.34 2.268c.576.96.864 2.124.864 3.492V36h-4.716zm11.34 0V25.74c0-1.008-.324-1.788-.972-2.34-.624-.576-1.404-.864-2.34-.864-.6 0-1.164.132-1.692.396-.504.24-.9.6-1.188 1.08-.288.48-.432 1.056-.432 1.728l-2.7-.648c.096-1.392.468-2.592 1.116-3.6a6.568 6.568 0 012.556-2.376c1.056-.576 2.232-.864 3.528-.864 1.296 0 2.46.276 3.492.828a5.956 5.956 0 012.448 2.304c.6 1.008.9 2.208.9 3.6V36h-4.716z" fill="#013B43"/><path d="M129.137 36.36c-.864 0-1.572-.288-2.124-.864-.552-.576-.828-1.284-.828-2.124 0-.84.276-1.548.828-2.124.552-.576 1.26-.864 2.124-.864.84 0 1.536.288 2.088.864.552.576.828 1.284.828 2.124 0 .84-.276 1.548-.828 2.124-.552.576-1.248.864-2.088.864z" fill="#E66E17"/></svg>